<?xml version="1.0" encoding="UTF-8" standalone="no"?>
<svg width="64px" height="64px" viewBox="0 0 64 64" version="1.1" xmlns="http://www.w3.org/2000/svg" xmlns:xlink="http://www.w3.org/1999/xlink">
    <!-- Generator: Sketch 3.7.2 (28276) - http://www.bohemiancoding.com/sketch -->
    <title>spa-helmet</title>
    <desc>Created with Sketch.</desc>
    <defs></defs>
    <g id="64px-Line" stroke="none" stroke-width="1" fill="none" fill-rule="evenodd">
        <g id="spa-helmet"></g>
        <path d="M55,38 C57.201,38 58,36.206 58,35 L58,25 C58,23.794 57.201,22 55,22 L52.488,22 C49.28,13.815 41.309,8 32,8 C22.691,8 14.72,13.815 11.512,22 L10,22 L10,7 C10,6.447 9.552,6 9,6 C8.448,6 8,6.447 8,7 L8,22.162 C6.562,22.615 6,24.001 6,25 L6,35 C6,36.206 6.799,38 9,38 L11.512,38 C12.063,39.405 12.753,40.741 13.567,41.989 C12.67,42.115 11.828,42.515 11.171,43.172 C9.611,44.732 9.611,47.269 11.149,48.806 C16.952,54.992 23.772,58 32,58 C40.228,58 47.048,54.992 52.828,48.828 C54.388,47.268 54.388,44.731 52.828,43.172 C52.171,42.515 51.329,42.114 50.432,41.989 C51.247,40.741 51.937,39.406 52.487,38 L55,38 L55,38 Z M55,24 C55.805,24 55.988,24.55 56,25 L56,34.988 C55.988,35.45 55.805,36 55,36 L53.161,36 C53.703,34.091 54,32.08 54,30 C54,27.92 53.704,25.909 53.161,24 L55,24 L55,24 Z M32,10 C43.028,10 52,18.972 52,30 C52,33.105 51.268,36.035 50,38.66 L50,25 C50,24.636 49.802,24.3 49.482,24.124 C44.37,21.311 38.814,20 32,20 C25.185,20 19.629,21.311 14.518,24.124 C14.198,24.3 14,24.636 14,25 L14,38.66 C12.732,36.035 12,33.105 12,30 C12,18.972 20.972,10 32,10 L32,10 Z M16,41.949 L16,25.597 C20.664,23.145 25.767,21.999 32,21.999 C38.232,21.999 43.335,23.145 48,25.597 L48,41.949 C44.349,46.825 38.546,50 32,50 C25.454,50 19.651,46.825 16,41.949 L16,41.949 Z M9,36 C8.195,36 8.012,35.45 8,35 L8,25.012 C8.012,24.55 8.195,24 9,24 L10.839,24 C10.297,25.909 10,27.92 10,30 C10,32.08 10.296,34.091 10.839,36 L9,36 L9,36 Z M48.582,44.453 C48.94,44.095 49.422,43.913 49.955,43.932 C50.49,43.955 51.022,44.194 51.414,44.585 C52.194,45.364 52.194,46.634 51.392,47.436 C45.913,53.279 39.75,56 32,56 C24.25,56 18.087,53.279 12.586,47.414 C11.806,46.635 11.806,45.365 12.586,44.586 C12.978,44.194 13.51,43.956 14.045,43.933 C14.573,43.912 15.06,44.095 15.418,44.454 C15.43,44.466 15.445,44.469 15.458,44.48 C19.493,49.084 25.411,52 32,52 C38.589,52 44.507,49.084 48.542,44.479 C48.555,44.468 48.57,44.465 48.582,44.453 L48.582,44.453 Z" id="Shape" fill="#000000"></path>
        <path d="M19,36 C19.552,36 20,35.553 20,35 L20,28.105 C21.272,27.503 25.137,26 32,26 C32.552,26 33,25.553 33,25 C33,24.447 32.552,24 32,24 C22.819,24 18.643,26.544 18.47,26.652 C18.178,26.835 18,27.155 18,27.5 L18,35 C18,35.553 18.448,36 19,36 L19,36 Z" id="Shape" fill="#000000"></path>
    </g>
</svg>